<?xml version="1.0" encoding="us-ascii" standalone="no"?><svg xmlns="http://www.w3.org/2000/svg" xmlns:xlink="http://www.w3.org/1999/xlink" contentStyleType="text/css" height="234px" preserveAspectRatio="none" style="width:330px;height:234px;background:#FFFFFF;" version="1.1" viewBox="0 0 330 234" width="330px" zoomAndPan="magnify"><defs/><g><rect fill="#FFFFFF" height="122.3984" style="stroke:#181818;stroke-width:1.0;" width="10" x="119.5" y="67.4297"/><rect fill="#FFFFFF" height="51.1328" style="stroke:#181818;stroke-width:1.0;" width="10" x="252.5" y="138.6953"/><line style="stroke:#181818;stroke-width:0.5;stroke-dasharray:5.0,5.0;" x1="36" x2="36" y1="36.2969" y2="198.8281"/><line style="stroke:#181818;stroke-width:0.5;stroke-dasharray:5.0,5.0;" x1="124" x2="124" y1="36.2969" y2="198.8281"/><line style="stroke:#181818;stroke-width:0.5;stroke-dasharray:5.0,5.0;" x1="257.5" x2="257.5" y1="36.2969" y2="198.8281"/><rect fill="#E2E2F0" height="30.2969" rx="2.5" ry="2.5" style="stroke:#181818;stroke-width:0.5;" width="63" x="5" y="5"/><text fill="#000000" font-family="sans-serif" font-size="14" lengthAdjust="spacing" textLength="49" x="12" y="24.9951">Sensor</text><rect fill="#E2E2F0" height="30.2969" rx="2.5" ry="2.5" style="stroke:#181818;stroke-width:0.5;" width="63" x="5" y="197.8281"/><text fill="#000000" font-family="sans-serif" font-size="14" lengthAdjust="spacing" textLength="49" x="12" y="217.8232">Sensor</text><rect fill="#E2E2F0" height="30.2969" rx="2.5" ry="2.5" style="stroke:#181818;stroke-width:0.5;" width="93" x="78" y="5"/><text fill="#000000" font-family="sans-serif" font-size="14" lengthAdjust="spacing" textLength="79" x="85" y="24.9951">Procesador</text><rect fill="#E2E2F0" height="30.2969" rx="2.5" ry="2.5" style="stroke:#181818;stroke-width:0.5;" width="93" x="78" y="197.8281"/><text fill="#000000" font-family="sans-serif" font-size="14" lengthAdjust="spacing" textLength="79" x="85" y="217.8232">Procesador</text><rect fill="#E2E2F0" height="30.2969" rx="2.5" ry="2.5" style="stroke:#181818;stroke-width:0.5;" width="76" x="219.5" y="5"/><text fill="#000000" font-family="sans-serif" font-size="14" lengthAdjust="spacing" textLength="62" x="226.5" y="24.9951">Actuador</text><rect fill="#E2E2F0" height="30.2969" rx="2.5" ry="2.5" style="stroke:#181818;stroke-width:0.5;" width="76" x="219.5" y="197.8281"/><text fill="#000000" font-family="sans-serif" font-size="14" lengthAdjust="spacing" textLength="62" x="226.5" y="217.8232">Actuador</text><rect fill="#FFFFFF" height="122.3984" style="stroke:#181818;stroke-width:1.0;" width="10" x="119.5" y="67.4297"/><rect fill="#FFFFFF" height="51.1328" style="stroke:#181818;stroke-width:1.0;" width="10" x="252.5" y="138.6953"/><polygon fill="#181818" points="107.5,63.4297,117.5,67.4297,107.5,71.4297,111.5,67.4297" style="stroke:#181818;stroke-width:1.0;"/><line style="stroke:#181818;stroke-width:1.0;" x1="36.5" x2="113.5" y1="67.4297" y2="67.4297"/><text fill="#000000" font-family="sans-serif" font-size="13" font-weight="bold" lengthAdjust="spacing" textLength="9" x="43.5" y="62.3638">1</text><text fill="#000000" font-family="sans-serif" font-size="13" lengthAdjust="spacing" textLength="34" x="56.5" y="62.3638">se&#241;al</text><line style="stroke:#181818;stroke-width:1.0;" x1="129.5" x2="171.5" y1="96.5625" y2="96.5625"/><line style="stroke:#181818;stroke-width:1.0;" x1="171.5" x2="171.5" y1="96.5625" y2="109.5625"/><line style="stroke:#181818;stroke-width:1.0;" x1="130.5" x2="171.5" y1="109.5625" y2="109.5625"/><polygon fill="#181818" points="140.5,105.5625,130.5,109.5625,140.5,113.5625,136.5,109.5625" style="stroke:#181818;stroke-width:1.0;"/><text fill="#000000" font-family="sans-serif" font-size="13" font-weight="bold" lengthAdjust="spacing" textLength="9" x="136.5" y="91.4966">2</text><text fill="#000000" font-family="sans-serif" font-size="13" lengthAdjust="spacing" textLength="96" x="149.5" y="91.4966">procesamiento</text><polygon fill="#181818" points="240.5,134.6953,250.5,138.6953,240.5,142.6953,244.5,138.6953" style="stroke:#181818;stroke-width:1.0;"/><line style="stroke:#181818;stroke-width:1.0;" x1="129.5" x2="246.5" y1="138.6953" y2="138.6953"/><text fill="#000000" font-family="sans-serif" font-size="13" font-weight="bold" lengthAdjust="spacing" textLength="9" x="136.5" y="133.6294">3</text><text fill="#000000" font-family="sans-serif" font-size="13" lengthAdjust="spacing" textLength="34" x="149.5" y="133.6294">se&#241;al</text><line style="stroke:#181818;stroke-width:1.0;stroke-dasharray:2.0,2.0;" x1="262.5" x2="304.5" y1="167.8281" y2="167.8281"/><line style="stroke:#181818;stroke-width:1.0;stroke-dasharray:2.0,2.0;" x1="304.5" x2="304.5" y1="167.8281" y2="180.8281"/><line style="stroke:#181818;stroke-width:1.0;stroke-dasharray:2.0,2.0;" x1="263.5" x2="304.5" y1="180.8281" y2="180.8281"/><polygon fill="#181818" points="273.5,176.8281,263.5,180.8281,273.5,184.8281,269.5,180.8281" style="stroke:#181818;stroke-width:1.0;"/><text fill="#000000" font-family="sans-serif" font-size="13" font-weight="bold" lengthAdjust="spacing" textLength="9" x="269.5" y="162.7622">4</text><text fill="#000000" font-family="sans-serif" font-size="13" lengthAdjust="spacing" textLength="41" x="282.5" y="162.7622">acci&#243;n</text><!--SRC=[IomjoSyhpKrABUBY2axDAyulKj2rKmWeoazEBKvCoI-oKYXEFRmnCOUBAp6v9BCiiIGLIP8BmKJNLG1XvsQcvfNaewbpJ2ufnM4sJ8eBnb3GHT6Gc9oSUNXp7W00]--></g></svg>